<?xml version="1.0" standalone="no"?>
<!DOCTYPE svg PUBLIC "-//W3C//DTD SVG 20010904//EN"
 "http://www.w3.org/TR/2001/REC-SVG-20010904/DTD/svg10.dtd">
<svg version="1.0" xmlns="http://www.w3.org/2000/svg"
 width="1024.000000pt" height="1024.000000pt" viewBox="0 0 1024.000000 1024.000000"
 preserveAspectRatio="xMidYMid meet">
<metadata>
Created by potrace 1.16, written by Peter Selinger 2001-2019
</metadata>
<g transform="translate(0.000000,1024.000000) scale(0.100000,-0.100000)"
fill="#000000" stroke="none">
<path d="M0 5120 l0 -5120 5120 0 5120 0 0 545 0 544 -82 4 -83 3 83 2 82 2 0
4570 0 4570 -5120 0 -5120 0 0 -5120z m5060 4275 c5 51 19 -71 19 -169 1 -96
3 -107 17 -102 14 5 15 4 4 -8 -9 -12 -9 -60 1 -233 8 -147 14 -719 18 -1745
3 -866 10 -1530 15 -1535 5 -4 11 -2 13 5 3 6 9 12 14 12 16 0 10 -34 -14 -70
l-22 -35 1 -1990 c1 -1094 5 -2011 9 -2037 4 -27 10 -46 15 -43 4 2 4 -15 -1
-38 -4 -23 -8 -55 -8 -72 0 -26 2 -27 9 -10 7 17 9 15 9 -12 1 -18 -4 -33 -10
-33 -7 0 -9 -15 -5 -42 l5 -43 -13 45 c-13 45 -13 45 -14 -56 -2 -132 -3 -134
-63 -134 l-49 0 0 35 c0 25 -4 33 -14 29 -11 -4 -12 3 -6 38 10 50 5 61 -10
27 -10 -22 -10 -21 -6 8 3 18 1 35 -5 38 -5 4 -7 35 -5 73 3 39 2 52 -2 32 -6
-28 -11 -8 -25 100 -10 74 -23 160 -29 190 -7 30 -11 61 -9 68 1 6 -2 12 -7
12 -14 0 -43 68 -31 76 6 3 13 3 16 0 4 -3 1 -6 -6 -6 -14 0 11 -46 35 -65 7
-5 15 -26 17 -45 4 -35 4 -35 5 6 1 22 7 45 14 52 6 6 8 15 4 19 -4 4 -10 2
-15 -5 -5 -9 -12 -9 -27 3 -19 14 -19 14 1 15 15 0 16 3 7 9 -10 6 -6 14 17
34 24 20 31 34 32 64 l1 38 12 -29 c13 -28 14 -26 21 48 4 43 4 80 1 83 -3 4
-7 -14 -7 -38 -1 -24 -4 -34 -6 -22 -2 13 -8 23 -13 23 -5 0 -14 10 -21 21 -6
13 -7 19 -1 15 6 -3 13 11 17 35 4 25 10 37 15 29 5 -8 9 -4 13 12 11 39 8 81
-8 112 -8 15 -15 33 -15 39 0 5 -8 16 -17 24 -10 8 -12 12 -5 8 13 -7 15 7 6
43 -6 21 -7 21 -21 5 -14 -17 -14 -17 -9 -1 3 10 2 18 -3 18 -4 0 -15 17 -23
38 -15 38 -15 38 9 38 15 0 22 -4 18 -13 -3 -7 -8 -20 -11 -28 -3 -8 -1 -15 5
-15 13 0 13 2 11 168 -1 115 0 132 14 132 12 0 16 11 18 43 l1 42 7 -45 7 -45
3 45 3 45 6 -45 c9 -63 22 226 14 303 -6 56 -7 59 -30 54 -23 -4 -24 -3 -19
32 5 26 4 32 -3 21 -6 -8 -11 -24 -11 -35 -1 -12 -7 -5 -16 20 -9 22 -29 70
-45 107 -17 36 -32 76 -34 88 -2 12 -10 29 -17 39 -11 15 -10 15 5 0 10 -8 19
-25 21 -36 7 -35 57 -133 68 -133 6 0 8 -11 4 -26 -6 -23 -5 -24 7 -12 11 10
12 27 6 68 -11 83 -11 110 4 110 10 0 12 34 9 160 -3 109 -1 160 6 160 6 0 13
-19 15 -42 5 -64 10 173 8 462 -1 140 2 303 6 361 6 84 5 105 -4 102 -10 -4
-13 11 -13 53 0 42 3 55 10 44 23 -35 30 21 29 265 0 289 7 288 -89 15 -32
-91 -66 -185 -74 -210 -9 -24 -14 -50 -11 -58 2 -7 0 -10 -5 -7 -9 6 -14 -8
-11 -28 1 -4 -5 -14 -12 -22 -11 -10 -51 -14 -158 -15 -182 -2 -169 -3 -169
20 0 11 -4 20 -10 20 -5 0 -6 7 -3 17 5 12 3 14 -7 8 -9 -5 -11 -4 -6 3 4 6
-11 64 -33 129 -59 172 -78 218 -83 202 -3 -8 -5 2 -5 21 0 19 -23 98 -52 175
-29 77 -66 181 -83 230 -31 91 -42 107 -63 99 -15 -6 -39 50 -31 71 3 8 11 15
18 14 10 0 10 -2 1 -6 -7 -2 -13 -14 -13 -26 0 -18 2 -19 11 -7 8 12 9 10 4
-7 -3 -12 -2 -24 3 -27 6 -3 12 3 15 15 7 25 -22 111 -34 103 -5 -3 -9 -10 -9
-15 0 -6 5 -7 10 -4 6 3 10 1 10 -4 0 -16 -16 -13 -30 4 -10 12 -10 15 0 15 7
0 10 6 7 14 -4 11 2 13 24 9 25 -4 32 0 36 16 5 19 13 21 84 21 62 0 79 -3 79
-14 0 -8 -6 -17 -12 -20 -7 -3 26 -4 74 -3 l87 2 15 -40 c8 -22 23 -69 35
-105 11 -36 45 -146 77 -245 l57 -180 23 69 c24 71 30 101 16 78 -6 -8 -9 -1
-9 20 0 18 4 38 9 45 5 7 7 21 4 31 -4 12 1 25 14 37 23 21 28 4 5 -18 -10
-11 -11 -17 -3 -19 7 -3 5 -13 -6 -31 -10 -14 -14 -31 -10 -38 7 -12 27 33 69
160 14 40 23 77 20 81 -3 5 -1 10 4 12 4 1 11 14 15 28 6 19 5 21 -3 10 -9
-13 -11 -13 -11 3 0 9 7 17 15 17 8 0 15 5 15 10 0 6 -5 10 -10 10 -7 0 -7 6
0 19 13 25 13 34 0 26 -5 -3 -7 0 -4 8 3 9 13 13 25 10 16 -5 18 -8 7 -14 -7
-5 -9 -9 -4 -9 5 0 3 -7 -4 -15 -7 -8 -8 -15 -4 -15 11 0 39 42 36 53 -1 4 6
3 17 -3 12 -6 35 -7 58 -2 36 7 38 10 42 52 l5 45 6 -45 c3 -25 6 191 6 480 1
289 -2 489 -6 445 -4 -49 -5 -20 -2 74 2 85 8 168 13 185 5 17 9 347 9 746 -1
393 1 733 4 755 11 84 15 561 5 535 -6 -14 -8 -39 -4 -57 3 -17 2 -34 -2 -36
-5 -3 -8 -55 -7 -117 1 -71 -2 -107 -8 -98 -6 8 -7 -3 -4 -32 5 -39 4 -41 -4
-15 -7 20 -7 46 0 75 5 25 9 122 9 215 0 244 0 245 11 245 6 0 9 -25 8 -64 -3
-60 4 -87 18 -74 3 4 6 119 7 258 1 138 4 243 8 233 7 -17 8 -17 9 2z m-2479
-483 c1 -34 6 -59 10 -56 5 3 9 -1 9 -9 0 -8 7 -27 15 -43 8 -15 12 -31 8 -34
-3 -3 -8 1 -10 8 -3 6 -9 12 -14 12 -6 0 -8 -4 -5 -9 3 -5 -9 -8 -26 -7 -17 1
-33 7 -36 14 -2 6 -10 12 -18 12 -8 0 -11 -6 -8 -15 5 -11 -1 -15 -22 -15 -16
0 -36 4 -44 9 -21 14 -32 3 -20 -20 8 -14 7 -23 -3 -33 -12 -12 -14 -8 -15 25
-1 21 3 39 8 39 6 0 10 9 10 20 0 11 4 20 10 20 5 0 7 -7 4 -15 -4 -8 -1 -15
5 -15 13 0 28 11 73 53 16 15 36 27 44 27 10 0 14 14 14 52 0 71 9 56 11 -20z
m381 -116 c7 4 8 2 4 -4 -4 -7 -1 -12 8 -12 9 0 16 4 16 9 0 4 10 8 23 7 12 0
22 -6 22 -13 0 -6 18 -25 41 -41 25 -18 41 -25 41 -17 0 7 -11 18 -25 25 -14
6 -22 13 -19 16 3 3 14 1 24 -4 11 -6 25 -7 33 -2 18 11 30 3 30 -21 0 -11 7
-19 16 -19 8 0 12 -4 9 -10 -3 -5 0 -10 7 -10 27 0 -17 -20 -47 -21 l-30 -1
28 -10 c19 -7 32 -7 41 1 10 8 17 6 31 -9 18 -19 17 -20 -6 -20 -41 0 -99 20
-99 35 0 8 13 15 33 18 l32 4 -37 1 c-20 1 -40 7 -43 12 -4 6 -25 22 -47 36
-31 20 -38 28 -27 35 9 6 10 9 2 9 -6 0 -15 -4 -18 -10 -9 -15 -36 -12 -57 7
-19 17 -24 8 -9 -16 5 -8 26 -14 48 -15 49 -1 54 -29 6 -34 -19 -2 -33 1 -33
7 0 6 -9 11 -20 11 -17 0 -20 7 -20 48 0 34 3 43 10 32 7 -11 10 -5 12 25 2
39 2 38 5 -8 3 -31 8 -45 15 -41z m5266 -311 c9 -10 11 -15 5 -11 -9 5 -13 0
-13 -13 0 -15 6 -18 28 -15 124 17 128 16 148 -21 10 -19 22 -35 27 -35 4 0 5
5 1 12 -5 7 -3 8 6 3 6 -4 33 -8 59 -8 29 0 35 -2 17 -4 -20 -3 -25 -7 -16
-13 7 -4 26 -4 42 1 24 7 28 6 18 -5 -10 -13 -93 -15 -130 -4 -8 3 -32 11 -52
17 -25 8 -44 9 -55 3 -20 -12 -72 4 -91 27 -7 9 -12 27 -11 41 2 39 -1 46 -11
30 -7 -10 -12 -12 -17 -4 -5 6 -15 14 -23 17 -8 3 0 4 18 3 18 -2 41 -11 50
-21z m-7298 -909 c22 4 46 1 56 -5 16 -10 15 -10 -8 -5 -19 4 -28 2 -28 -7 0
-20 -30 -48 -46 -42 -8 3 -14 0 -14 -6 0 -6 -18 -11 -42 -11 -24 0 -55 -7 -70
-14 -16 -9 -30 -11 -33 -5 -4 5 -11 9 -17 9 -6 0 -5 -6 2 -16 8 -8 9 -14 4
-13 -5 2 -23 -4 -40 -13 -18 -10 -35 -13 -40 -8 -5 5 -17 3 -28 -6 -11 -8 -15
-14 -10 -14 6 0 14 3 20 8 5 4 -13 -14 -41 -40 -39 -36 -56 -46 -78 -44 -15 2
-30 -1 -34 -7 -3 -5 -1 -7 5 -3 6 3 13 2 17 -4 11 -19 -20 -10 -38 10 -16 19
-16 20 17 16 26 -4 39 1 56 19 14 15 28 21 39 17 14 -5 14 -4 -2 12 -19 20
-13 40 10 31 9 -3 22 3 30 14 11 16 18 18 38 11 15 -6 27 -6 30 0 4 6 -3 10
-14 10 -31 0 -34 17 -3 18 15 1 44 2 64 3 21 0 35 5 32 10 -3 5 -3 9 0 9 2 0
12 3 22 7 12 4 15 3 10 -5 -5 -8 -1 -10 10 -5 11 4 13 8 6 11 -7 2 -12 10 -12
18 0 10 12 14 40 14 22 0 40 -4 40 -10 0 -15 26 -12 40 5 15 18 -1 20 -18 3
-7 -7 -12 -10 -13 -7 -6 35 -7 52 -3 42 4 -9 18 -11 44 -7z m4824 -1977 c69
-12 171 -55 215 -89 l32 -25 -32 -95 c-17 -52 -31 -103 -31 -112 0 -10 -3 -18
-9 -18 -5 0 -9 -9 -9 -20 0 -19 -5 -17 -69 15 -162 83 -291 87 -291 11 0 -26
76 -79 103 -72 9 2 15 1 13 -3 -5 -7 143 -67 157 -63 4 1 7 -3 7 -9 0 -6 7 -9
15 -5 8 3 14 2 12 -2 -1 -4 23 -33 55 -64 31 -31 54 -59 50 -62 -3 -3 -1 -6 4
-6 5 0 10 -8 11 -17 1 -10 7 -38 13 -63 14 -54 7 -151 -15 -203 -8 -21 -13
-42 -10 -48 4 -5 3 -8 -2 -7 -5 2 -26 -16 -47 -39 -44 -50 -138 -99 -215 -113
-181 -34 -401 11 -530 108 -19 14 -31 20 -26 13 5 -9 3 -12 -6 -9 -8 3 -14 25
-16 57 -4 50 -3 53 16 48 12 -3 21 -1 21 4 0 5 5 9 11 9 6 0 1 -16 -11 -36
-18 -28 -20 -38 -10 -47 10 -9 11 -9 5 1 -4 7 0 21 8 30 7 9 27 54 42 99 21
62 25 85 17 96 -9 10 -6 13 13 13 13 0 21 -4 18 -10 -4 -5 1 -7 11 -3 9 4 15
3 12 -2 -5 -7 44 -34 64 -36 3 0 15 -6 27 -13 54 -30 213 -56 198 -32 -3 6
-18 7 -33 3 -24 -6 -26 -5 -13 10 7 10 23 17 34 17 11 0 17 3 14 7 -4 3 -25 0
-47 -7 -40 -13 -67 -7 -41 9 7 5 11 13 7 19 -9 14 45 22 88 12 45 -10 64 -25
21 -17 -30 6 -30 6 4 -9 18 -8 36 -13 39 -10 3 4 0 6 -7 6 -7 0 -10 4 -7 9 9
14 -12 25 -114 61 -52 18 -122 49 -155 69 -33 19 -64 34 -68 33 -5 -1 -6 2 -3
7 4 5 0 13 -7 18 -20 12 -53 72 -70 128 -19 62 -32 210 -19 219 5 3 7 -6 5
-22 -2 -16 4 -7 17 23 23 58 23 58 10 50 -12 -7 -6 43 6 54 4 3 5 -1 1 -11
-12 -33 6 -26 37 15 18 23 47 52 66 65 19 13 34 28 33 32 -2 5 5 9 15 9 9 0
44 7 77 15 72 17 210 20 289 5z m92 -1404 c-3 -8 -1 -17 4 -20 6 -4 11 9 11
27 1 18 3 25 6 16 2 -10 11 -18 18 -18 8 0 16 -4 19 -9 4 -5 -2 -7 -12 -4 -17
4 -20 -4 -25 -74 -3 -43 -3 -114 0 -157 l6 -79 -27 7 c-14 3 -35 2 -46 -4 -14
-8 -20 -8 -20 0 0 6 10 15 23 20 12 5 16 9 10 9 -10 1 -13 25 -11 89 1 75 2
81 9 42 5 -33 7 -20 5 52 -1 54 0 95 2 93 2 -2 8 -28 12 -57 l8 -53 -1 68 c-1
37 -5 67 -9 67 -4 0 -8 7 -8 16 0 14 2 14 16 -1 9 -8 13 -22 10 -30z m1787
-51 c20 -22 24 -37 26 -99 2 -71 1 -75 -29 -102 -18 -15 -36 -29 -41 -29 -5
-1 -14 -2 -20 -3 -5 0 -7 -7 -3 -13 6 -10 4 -10 -7 0 -17 16 -31 16 -27 -1 4
-17 -40 -72 -50 -63 -4 4 7 19 23 33 l30 25 -28 -6 c-19 -5 -26 -3 -22 4 3 5
13 10 21 10 9 0 12 5 8 12 -4 6 -3 8 3 5 18 -11 48 20 48 50 0 21 5 29 23 31
18 3 22 10 22 37 0 18 3 41 7 51 4 11 3 15 -4 11 -7 -4 -10 2 -9 17 1 25 16
25 16 0 0 -8 5 -14 10 -14 16 0 12 15 -11 44 -26 33 -17 34 14 0z m-5851
-1071 c14 -38 29 -82 32 -100 7 -31 7 -31 -46 -42 -29 -6 -64 -12 -78 -15 -14
-2 -38 -9 -54 -15 -16 -7 -31 -9 -34 -6 -3 3 1 5 9 5 12 0 11 2 -1 11 -12 8
-11 9 5 5 11 -3 31 1 44 8 l23 13 -32 7 c-18 3 -35 4 -38 1 -3 -3 2 -5 11 -5
10 0 17 -4 17 -10 0 -12 -10 -13 -29 -1 -23 15 -2 34 31 27 22 -4 30 -1 35 12
4 9 17 25 30 35 26 21 30 37 8 37 -8 0 -15 9 -15 20 0 11 7 20 15 20 8 0 15 7
15 16 0 8 -7 22 -15 30 -8 9 -15 20 -15 27 0 6 9 1 20 -11 31 -33 34 -27 10
16 l-22 37 24 -27 c13 -15 35 -58 50 -95z m289 -1260 c18 -32 32 -64 30 -72
-1 -8 2 -10 11 -5 7 4 3 -4 -9 -18 -13 -13 -23 -28 -23 -32 0 -4 -10 -20 -22
-36 -18 -24 -24 -27 -36 -17 -13 10 -14 9 -5 -7 9 -16 2 -31 -40 -89 -28 -38
-57 -71 -64 -74 -7 -3 -13 -11 -13 -17 0 -7 -7 -21 -15 -32 -15 -19 -15 -19
-9 1 6 16 5 18 -7 8 -7 -7 -27 -13 -44 -13 -16 0 -37 -5 -45 -11 -11 -8 -8 -9
13 -4 19 4 26 2 22 -5 -3 -5 -22 -10 -41 -10 -27 0 -34 4 -34 19 0 11 4 22 10
26 5 3 6 13 3 21 -6 15 -17 15 -58 -2 -18 -7 -18 -6 -5 7 8 9 26 18 39 22 18
4 24 1 28 -14 3 -11 15 -19 27 -20 19 -1 18 -2 -4 -8 -14 -4 -27 -15 -29 -26
-3 -17 -2 -18 14 -2 9 9 32 17 50 17 19 0 37 5 40 11 4 6 14 8 22 5 8 -4 11
-1 7 5 -3 6 3 17 15 25 12 8 21 23 21 32 0 9 9 32 20 50 11 18 18 37 15 42 -3
6 1 7 10 4 9 -4 14 -13 11 -20 -3 -8 -1 -14 3 -14 17 0 20 28 4 34 -14 6 -14
8 1 24 9 10 16 25 16 33 0 21 66 83 79 75 15 -10 17 -18 -28 101 -8 19 -18 30
-24 26 -6 -3 -7 -1 -3 5 4 7 9 12 11 12 2 0 18 -26 36 -57z m-930 -28 c1 -29
1 -29 8 -5 7 24 7 24 14 -9 4 -19 5 -36 2 -39 -3 -3 -5 1 -5 10 0 26 -28 16
-32 -12 -3 -17 1 -27 9 -27 9 0 11 8 8 21 -6 19 -5 20 5 3 10 -15 6 -28 -19
-69 -17 -27 -31 -51 -31 -54 0 -3 -21 -36 -46 -75 -30 -45 -50 -66 -54 -59 -6
9 -9 9 -16 -1 -4 -7 -3 -14 4 -17 12 -4 -17 -39 -102 -127 -27 -27 -43 -40
-37 -27 7 13 19 26 27 29 7 3 11 10 8 15 -4 6 -10 5 -15 -3 -8 -12 -11 -11
-20 1 -8 11 -12 12 -16 3 -2 -7 -9 -13 -15 -13 -7 0 -6 5 2 14 7 10 24 13 47
10 29 -3 34 -2 25 9 -16 19 -11 76 6 69 10 -3 10 -8 3 -15 -6 -6 -11 -18 -11
-26 0 -11 5 -8 16 7 9 13 22 21 28 19 7 -3 19 -1 27 4 11 7 10 9 -4 9 -17 0
-17 1 -3 16 9 8 30 36 47 60 17 25 33 43 37 40 3 -3 -3 -15 -13 -26 -10 -11
-16 -23 -13 -26 4 -3 18 14 32 37 14 24 23 46 20 48 -3 3 -9 -1 -14 -9 -6 -9
-10 -10 -10 -3 0 6 5 15 11 19 6 4 9 19 5 38 -5 29 -5 30 9 12 8 -11 12 -29 9
-39 -4 -13 -2 -17 5 -13 6 4 11 14 11 23 0 9 12 32 26 51 25 32 25 33 5 22
-12 -6 -25 -18 -28 -26 -5 -13 -7 -13 -14 -2 -13 20 -11 28 8 21 10 -4 14 -2
10 4 -4 6 0 16 8 23 16 13 21 55 8 63 -5 2 -3 2 4 1 7 -2 10 3 6 11 -4 11 -10
12 -23 5 -10 -6 -25 -10 -32 -9 -7 0 1 7 17 14 17 7 33 11 38 8 4 -2 7 3 7 12
0 9 -4 13 -10 10 -6 -3 -7 1 -3 10 8 23 22 0 24 -40z m7382 -499 c42 -3 87
-67 55 -79 -7 -3 -3 -4 9 -4 12 1 19 5 16 11 -3 5 -1 6 5 2 7 -4 12 -14 12
-22 0 -8 6 -14 14 -14 12 0 79 -72 99 -106 4 -7 -9 -11 -37 -11 -38 -1 -43 2
-39 18 6 20 23 27 23 9 0 -5 4 -10 9 -10 5 0 7 9 4 21 -4 13 -11 18 -21 14
-13 -5 -13 -3 -1 12 13 16 12 17 -3 5 -9 -8 -18 -23 -20 -35 -3 -21 -7 -22
-128 -23 l-125 0 125 6 c113 5 102 6 -120 10 l-245 4 245 6 c135 3 226 7 203
8 -34 2 -43 6 -42 20 0 10 3 12 6 5 8 -21 25 -14 18 7 -9 28 13 26 24 -2 8
-21 10 -22 16 -5 10 24 -31 69 -44 49 -12 -20 -21 20 -10 41 6 10 5 18 -2 23
-8 4 -9 3 -5 -4 4 -7 1 -12 -6 -12 -17 0 -78 57 -78 73 0 8 3 7 9 -2 5 -8 20
-15 34 -15z"/>
</g>
</svg>
